<?xml version="1.0" encoding="UTF-8" standalone="no"?>
<svg
   xmlns:dc="http://purl.org/dc/elements/1.1/"
   xmlns:cc="http://creativecommons.org/ns#"
   xmlns:rdf="http://www.w3.org/1999/02/22-rdf-syntax-ns#"
   xmlns:svg="http://www.w3.org/2000/svg"
   xmlns="http://www.w3.org/2000/svg"
   viewBox="0 0 468.39999 174.14999"
   height="174.14999"
   width="468.39999"
   xml:space="preserve"
   version="1.1"
   id="svg2"><metadata
     id="metadata8"><rdf:RDF><cc:Work
         rdf:about=""><dc:format>image/svg+xml</dc:format><dc:type
           rdf:resource="http://purl.org/dc/dcmitype/StillImage" /></cc:Work></rdf:RDF></metadata><defs
     id="defs6"><clipPath
       id="clipPath32"
       clipPathUnits="userSpaceOnUse"><path
         id="path34"
         d="m 0,0 0,1393 3747,0 L 3747,0 0,0 Z" /></clipPath><clipPath
       id="clipPath38"
       clipPathUnits="userSpaceOnUse"><path
         style="clip-rule:evenodd"
         id="path40"
         d="M 915.605,936.902 C 915.605,684.91 711.289,480.68 459.316,480.68 207.344,480.68 3.02734,684.91 3.02734,936.902 c 0,251.998 204.31666,456.308 456.28866,456.308 251.973,0 456.289,-204.31 456.289,-456.308" /></clipPath></defs><g
     transform="matrix(1.25,0,0,-1.25,0,174.15)"
     id="g10"><g
       transform="scale(0.1,0.1)"
       id="g12"><path
         id="path14"
         style="fill:#2a7482;fill-opacity:1;fill-rule:nonzero;stroke:none"
         d="m 1409.88,477.625 c -251.95,0 -456.247,204.27 -456.247,456.258 0,252.047 204.297,456.257 456.247,456.257 252.01,0 456.33,-204.21 456.33,-456.257 0,-251.988 -204.32,-456.258 -456.33,-456.258 m -219.1,713.695 0,-525.668 205.02,0 c 165.22,0 279.36,114.911 279.36,262.832 l 0,1.512 c 0,147.914 -114.14,261.324 -279.36,261.324 l -205.02,0 m 205.02,-421.273 -89.35,0 0,316.923 89.35,0 c 94.63,0 158.42,-65.36 158.42,-158.486 l 0,-1.504 c 0,-93.085 -63.79,-156.933 -158.42,-156.933" /><path
         id="path16"
         style="fill:#458e35;fill-opacity:1;fill-rule:nonzero;stroke:none"
         d="m 2347.05,477.625 c -251.97,0 -456.31,204.27 -456.31,456.258 0,252.047 204.34,456.257 456.31,456.257 251.95,0 456.25,-204.21 456.25,-456.257 0,-251.988 -204.3,-456.258 -456.25,-456.258 m -205.62,713.695 0,-525.668 205.05,0 c 165.24,0 279.36,114.911 279.36,262.832 l 0,1.512 c 0,147.914 -114.12,261.324 -279.36,261.324 l -205.05,0 m 205.05,-421.273 -89.37,0 0,316.923 89.37,0 c 94.63,0 158.44,-65.36 158.44,-158.486 l 0,-1.504 c 0,-93.085 -63.81,-156.933 -158.44,-156.933" /><path
         id="path18"
         style="fill:#6d9d2d;fill-opacity:1;fill-rule:nonzero;stroke:none"
         d="m 3290.86,477.625 c -251.95,0 -456.25,204.27 -456.25,456.258 0,252.047 204.3,456.257 456.25,456.257 251.99,0 456.31,-204.21 456.31,-456.257 0,-251.988 -204.32,-456.258 -456.31,-456.258 m -73.91,713.695 0,-525.668 115.65,0 0,525.668 -115.65,0" /><path
         id="path20"
         style="fill:#ffffff;fill-opacity:1;fill-rule:nonzero;stroke:none"
         d="m 1395.8,665.652 -205.02,0 0,525.668 205.02,0 c 165.22,0 279.36,-113.41 279.36,-261.324 l 0,-1.512 c 0,-147.921 -114.14,-262.832 -279.36,-262.832 m -89.35,421.318 0,-316.923 89.35,0 c 94.63,0 158.42,63.848 158.42,156.933 l 0,1.504 c 0,93.126 -63.79,158.486 -158.42,158.486 l -89.35,0" /><path
         id="path22"
         style="fill:#ffffff;fill-opacity:1;fill-rule:nonzero;stroke:none"
         d="m 2346.48,665.652 -205.05,0 0,525.668 205.05,0 c 165.24,0 279.36,-113.41 279.36,-261.324 l 0,-1.512 c 0,-147.921 -114.12,-262.832 -279.36,-262.832 m -89.37,421.318 0,-316.923 89.37,0 c 94.63,0 158.44,63.848 158.44,156.933 l 0,1.504 c 0,93.126 -63.81,158.486 -158.44,158.486 l -89.37,0" /><path
         id="path24"
         style="fill:#ffffff;fill-opacity:1;fill-rule:nonzero;stroke:none"
         d="m 3216.95,665.652 115.652,0 0,525.672 -115.652,0 0,-525.672 z" /><path
         id="path26"
         style="fill:#204b72;fill-opacity:1;fill-rule:nonzero;stroke:none"
         d="m 459.316,480.68 c -58.515,0 -114.453,11.011 -165.867,31.082 5.531,5.308 12.614,12.289 17.84,18 l 93.008,-26.688 28.183,48.809 -69.472,67.187 c 3.574,10.516 6.465,21.368 8.652,32.325 l 93.77,23.425 0,56.387 -93.75,23.391 c -2.188,10.996 -5.098,21.836 -8.672,32.402 l 69.472,67.148 -28.183,48.758 -92.969,-26.601 c -7.363,8.379 -15.293,16.32 -23.633,23.672 l 26.602,92.961 -48.809,28.192 -67.148,-69.454 c -10.527,3.574 -21.387,6.476 -32.383,8.652 l -23.437,93.762 -56.3286,0 -23.4375,-93.762 C 51.7578,958.152 40.918,955.25 30.3711,951.676 L 4.85938,978.066 C 4.35547,972.441 3.95703,966.805 3.66016,961.125 3.23828,953.109 3.02734,945.023 3.02734,936.902 l 0,0 c 0,251.998 204.31666,456.308 456.28866,456.308 251.973,0 456.289,-204.31 456.289,-456.308 0,-251.992 -204.316,-456.222 -456.289,-456.222 m 150.258,295.082 18.199,-72.785 43.262,0 18.18,72.781 c 25.297,5.215 48.848,15.293 69.605,29.211 l 64.129,-37.227 30.117,31.055 -38.66,62.402 c 13.239,20.254 22.848,43.071 27.91,67.547 l 73.18,18.293 c -0.324,14.891 -1.363,29.606 -3.082,44.109 l -70.101,17.522 c -5.071,24.51 -14.715,47.38 -27.993,67.65 l 38.746,62.58 -30.117,31.02 -64.379,-37.33 c -20.699,13.83 -44.16,23.85 -69.355,29.04 l -18.18,72.78 -43.262,0 -18.199,-72.78 c -25.75,-5.31 -49.668,-15.65 -70.695,-29.96 l 0.781,1.35 0.008,0 0,0 2.695,4.65 -65.722,38.17 -30.137,-31.02 40.039,-64.61 0.992,0.62 c -14.879,-21.41 -25.621,-45.89 -31.062,-72.29 l -72.782,-18.192 0,-43.282 72.778,-18.191 c 5.105,-24.777 14.875,-47.855 28.347,-68.297 l -38.312,-61.781 30.137,-31.055 63.703,36.988 c 20.672,-13.792 44.082,-23.785 69.23,-28.968 m -432.804,343.748 -2.297,-0.58 16.816,-67.34 46.426,0 16.875,67.34 -2.285,0.58 c 18.422,4.23 35.699,11.5 51.281,21.25 l -0.5,-0.86 60.039,-34.86 32.324,33.27 -36.465,58.86 c 9.09,15.14 15.871,31.83 19.848,49.56 l 0.797,-3.19 67.363,16.88 0,46.41 -67.363,16.8 -0.801,-3.2 c -3.984,17.8 -10.797,34.54 -19.93,49.72 l 8.555,13.81 c -4.902,-1.01 -9.781,-2.09 -14.625,-3.25 -2.121,-0.5 -4.238,-1.03 -6.348,-1.56 -0.527,-0.13 -1.031,-0.27 -1.554,-0.4 -1.996,-0.52 -3.985,-1.04 -5.965,-1.59 -25.156,-6.86 -49.469,-15.83 -72.691,-26.69 -4.29,-2.01 -8.536,-4.07 -12.747,-6.2 -39.023,-19.76 -74.82,-44.96 -106.402,-74.6 -3.449,-3.24 -6.851,-6.53 -10.199,-9.88 -19.156,-19.12 -36.629,-39.96 -52.1603,-62.23 -1.4375,-2.06 -2.8554,-4.13 -4.2617,-6.22 -0.0312,-0.05 -0.0547,-0.08 -0.0859,-0.13 -11.418,-16.98 -21.7188,-34.76 -30.8125,-53.25 -1.6836,-3.42 -3.3321,-6.88 -4.9297,-10.36 l 21.9492,-22.56 60.0199,34.86 -0.121,0.21 c 15.304,-9.42 32.23,-16.46 50.25,-20.6 M 171.988,582.473 C 102.996,638.453 50.6758,714.16 23.6094,801.016 c 23.8437,22.097 55.7383,35.621 90.7266,35.621 73.711,0 133.652,-59.922 133.652,-133.621 0,-53.039 -31.082,-98.977 -76,-120.543" /><g
         id="g28"><g
           clip-path="url(#clipPath32)"
           id="g30"><g
             clip-path="url(#clipPath38)"
             id="g36"><path
               id="path42"
               style="fill:#ffffff;fill-opacity:1;fill-rule:nonzero;stroke:none"
               d="m 280.629,516.992 c -35.031,14.918 -67.809,34.098 -97.695,56.875 46.168,24.617 77.671,73.27 77.671,129.149 0,80.652 -65.625,146.25 -146.269,146.25 -36.0743,0 -69.1407,-13.133 -94.6719,-34.871 -10.83988,38.98 -16.63676,80.07 -16.63676,122.507 0,8.121 0.21094,16.207 0.63282,24.223 l 23.25394,-24.066 3.8281,1.394 c 12.3828,4.406 25.2344,7.824 38.3008,10.246 l 4.0039,0.711 22.9883,92.05 36.6018,0 23.047,-92.05 4.004,-0.711 c 13.027,-2.422 25.937,-5.84 38.281,-10.246 l 3.828,-1.394 65.918,68.221 31.719,-18.3 -26.094,-91.3 3.066,-2.617 c 10.02,-8.575 19.434,-17.989 28.008,-28.036 l 2.617,-3.058 91.27,26.094 18.301,-31.688 -68.204,-65.918 1.387,-3.859 c 4.395,-12.383 7.852,-25.254 10.215,-38.231 l 0.742,-4.015 92.051,-23.028 0,-36.66 -92.031,-22.988 -0.762,-3.973 c -2.402,-13.019 -5.84,-25.89 -10.215,-38.273 l -1.367,-3.817 68.184,-65.957 -18.301,-31.73 -91.27,26.176 -2.617,-3.059 c -5.988,-7.031 -17.469,-18.09 -23.785,-24.051" /><path
               id="path44"
               style="fill:#ffffff;fill-opacity:1;fill-rule:nonzero;stroke:none"
               d="m 404.297,503.074 -93.008,26.688 c -5.226,-5.711 -12.309,-12.692 -17.84,-18 -4.297,1.676 -8.586,3.426 -12.82,5.23 6.316,5.961 17.797,17.02 23.785,24.051 l 2.617,3.059 91.27,-26.176 18.301,31.73 -68.184,65.957 1.367,3.817 c 4.375,12.383 7.813,25.254 10.215,38.273 l 0.762,3.973 92.031,22.988 0,36.66 -92.051,23.028 -0.742,4.015 c -2.363,12.977 -5.82,25.848 -10.215,38.231 l -1.387,3.859 68.204,65.918 -18.301,31.688 -91.27,-26.094 -2.617,3.058 c -8.574,10.047 -17.988,19.461 -28.008,28.036 l -3.066,2.617 26.094,91.3 -31.719,18.3 -65.918,-68.221 -3.828,1.394 c -12.344,4.406 -25.254,7.824 -38.281,10.246 l -4.004,0.711 -23.047,92.05 -36.6018,0 -22.9883,-92.05 -4.0039,-0.711 c -13.0664,-2.422 -25.918,-5.84 -38.3008,-10.246 l -3.8281,-1.394 -23.25394,24.066 c 0.29687,5.68 0.69531,11.316 1.19922,16.941 l 25.51172,-26.39 c 10.5469,3.574 21.3867,6.476 32.3828,8.652 l 23.4375,93.762 56.3286,0 23.437,-93.762 c 10.996,-2.176 21.856,-5.078 32.383,-8.652 l 67.148,69.454 48.809,-28.192 -26.602,-92.961 c 8.34,-7.352 16.27,-15.293 23.633,-23.672 L 404.297,902.906 432.48,854.148 363.008,787 c 3.574,-10.566 6.484,-21.406 8.672,-32.402 l 93.75,-23.391 0,-56.387 -93.77,-23.425 c -2.187,-10.957 -5.078,-21.809 -8.652,-32.325 l 69.472,-67.187 -28.183,-48.809 m -221.363,70.793 c -3.692,2.813 -7.344,5.688 -10.946,8.606 44.918,21.566 76,67.504 76,120.543 0,73.699 -59.941,133.621 -133.652,133.621 -34.9883,0 -66.8829,-13.524 -90.7266,-35.621 -1.3828,4.437 -2.6953,8.886 -3.9453,13.379 25.5312,21.738 58.5976,34.871 94.6719,34.871 80.644,0 146.269,-65.598 146.269,-146.25 0,-55.879 -31.503,-104.532 -77.671,-129.149" /><path
               id="path46"
               style="fill:#ffffff;fill-opacity:1;fill-rule:nonzero;stroke:none"
               d="m 649.395,784.344 c -101.622,0 -184.317,82.715 -184.317,184.363 0,101.623 82.695,184.333 184.317,184.333 101.66,0 184.355,-82.71 184.355,-184.333 0,-101.648 -82.695,-184.363 -184.355,-184.363 m -0.02,283.566 c -52.656,0 -95.508,-42.86 -95.508,-95.512 0,-52.644 42.852,-95.535 95.508,-95.535 52.656,0 95.527,42.891 95.527,95.535 0,52.652 -42.871,95.512 -95.527,95.512" /><path
               id="path48"
               style="fill:#ffffff;fill-opacity:1;fill-rule:nonzero;stroke:none"
               d="m 689.215,775.758 0.238,0.957 -5.219,1.293 0.004,0.015 -0.082,0 -5.133,1.27 -0.32,-1.27 -58.601,0 -0.317,1.27 -5.144,-1.27 -0.09,0 0.004,-0.019 -5.219,-1.289 0.238,-0.953 c -25.148,5.183 -48.558,15.176 -69.23,28.968 l 2.019,1.176 -5.39,9.285 -1.164,-0.675 -40.856,42.058 0.711,1.149 -9.121,5.644 -1.727,-2.789 c -13.472,20.442 -23.242,43.52 -28.347,68.297 l 0.933,-0.234 2.637,10.449 -1.328,0.332 0,58.547 1.328,0.328 -2.637,10.483 -0.929,-0.24 c 5.441,26.4 16.183,50.88 31.062,72.29 l 3.555,2.22 0.004,-0.01 0.035,0.03 4.535,2.82 -0.695,1.13 40.847,42.04 1.157,-0.67 1.906,3.28 c 21.027,14.31 44.945,24.65 70.695,29.96 l -0.238,-0.96 10.449,-2.59 0.324,1.31 58.586,0 0.328,-1.31 10.43,2.59 -0.238,0.96 c 25.195,-5.19 48.656,-15.21 69.355,-29.04 l -1.363,-0.8 5.41,-9.32 1.199,0.69 40.813,-42.02 -0.723,-1.16 9.16,-5.69 1.254,2.03 c 13.278,-20.27 22.922,-43.14 27.993,-67.65 l -0.418,0.11 -2.618,-10.483 1.309,-0.324 0,-58.555 -1.309,-0.328 1.309,-5.227 0,-0.015 0.004,0 1.305,-5.207 0.421,0.105 c -5.062,-24.476 -14.671,-47.293 -27.91,-67.547 l -1.34,2.168 -9.16,-5.644 0.723,-1.164 -40.836,-42.047 -1.176,0.679 -5.41,-9.285 1.613,-0.937 c -20.757,-13.918 -44.308,-23.996 -69.605,-29.211 m -39.82,377.282 c -101.622,0 -184.317,-82.71 -184.317,-184.333 0,-101.648 82.695,-184.363 184.317,-184.363 101.66,0 184.355,82.715 184.355,184.363 0,101.623 -82.695,184.333 -184.355,184.333" /><path
               id="path50"
               style="fill:#ffffff;fill-opacity:1;fill-rule:nonzero;stroke:none"
               d="m 679.023,1158.08 -0.328,1.31 5.543,0 -17.402,69.62 -34.883,0 -17.402,-69.62 5.558,0 -0.324,-1.31 -10.449,2.59 0.238,0.96 18.199,72.78 43.262,0 18.18,-72.78 0.238,-0.96 -10.43,-2.59" /><path
               id="path52"
               style="fill:#ffffff;fill-opacity:1;fill-rule:nonzero;stroke:none"
               d="m 684.238,1159.39 -69.687,0 17.402,69.62 34.883,0 17.402,-69.62" /><path
               id="path54"
               style="fill:#ffffff;fill-opacity:1;fill-rule:nonzero;stroke:none"
               d="m 457.402,928.641 -0.933,0.234 -72.778,18.191 0,43.282 72.782,18.192 0.929,0.24 2.637,-10.483 -1.328,-0.328 0,5.561 -69.648,-17.428 0,-34.864 69.648,-17.39 0,5.574 1.328,-0.332 -2.637,-10.449" /><path
               id="path56"
               style="fill:#ffffff;fill-opacity:1;fill-rule:nonzero;stroke:none"
               d="m 458.711,933.848 -69.648,17.39 0,34.864 69.648,17.428 0,-69.682" /><path
               id="path58"
               style="fill:#ffffff;fill-opacity:1;fill-rule:nonzero;stroke:none"
               d="m 841.895,928.641 -1.305,5.207 69.625,17.429 0,34.864 -69.629,17.389 0,-5.557 -1.309,0.324 2.618,10.483 0.418,-0.11 70.101,-17.522 c 1.719,-14.503 2.758,-29.218 3.082,-44.109 l -73.18,-18.293 -0.421,-0.105 m -1.309,5.222 -1.309,5.227 1.309,0.328 0,-5.555" /><path
               id="path60"
               style="fill:#ffffff;fill-opacity:1;fill-rule:nonzero;stroke:none"
               d="m 840.586,933.848 0,69.682 69.629,-17.389 0,-34.864 -69.625,-17.429 -0.004,0" /><path
               id="path62"
               style="fill:#ffffff;fill-opacity:1;fill-rule:nonzero;stroke:none"
               d="m 813.066,1074.29 -9.16,5.69 0.723,1.16 3.867,-3.98 37.832,61.03 -24.336,24.98 -62.051,-36.01 3.875,-4 -1.199,-0.69 -5.41,9.32 1.363,0.8 64.379,37.33 30.117,-31.02 -38.746,-62.58 -1.254,-2.03" /><path
               id="path64"
               style="fill:#ffffff;fill-opacity:1;fill-rule:nonzero;stroke:none"
               d="m 808.496,1077.16 -3.867,3.98 -40.813,42.02 -3.875,4 62.051,36.01 24.336,-24.98 -37.832,-61.03" /><path
               id="path66"
               style="fill:#ffffff;fill-opacity:1;fill-rule:nonzero;stroke:none"
               d="m 822.949,767.742 -64.129,37.227 -1.613,0.937 5.41,9.285 1.176,-0.679 -3.852,-3.969 62.051,-36.055 24.336,25.02 -37.832,61.035 -3.867,-3.984 -0.723,1.164 9.16,5.644 1.34,-2.168 38.66,-62.402 -30.117,-31.055" /><path
               id="path68"
               style="fill:#ffffff;fill-opacity:1;fill-rule:nonzero;stroke:none"
               d="m 821.992,774.488 -62.051,36.055 3.852,3.969 40.836,42.047 3.867,3.984 37.832,-61.035 -24.336,-25.02" /><path
               id="path70"
               style="fill:#ffffff;fill-opacity:1;fill-rule:nonzero;stroke:none"
               d="m 486.543,1080.21 -40.039,64.61 30.137,31.02 65.722,-38.17 -2.695,-4.65 -62.09,36.07 -24.297,-25.02 37.809,-61.02 -3.555,-2.22 -0.992,-0.62 m 4.586,2.86 3.84,3.95 0.695,-1.13 -4.535,-2.82 m 45.844,45.32 -1.157,0.67 3.844,3.96 -0.781,-1.35 -1.906,-3.28" /><path
               id="path72"
               style="fill:#ffffff;fill-opacity:1;fill-rule:nonzero;stroke:none"
               d="m 491.094,1083.04 -0.004,0.01 -37.809,61.02 24.297,25.02 62.09,-36.07 0,0 -0.008,0 -3.844,-3.96 -40.847,-42.04 -3.84,-3.95 -0.035,-0.03" /><path
               id="path74"
               style="fill:#ffffff;fill-opacity:1;fill-rule:nonzero;stroke:none"
               d="m 476.641,767.742 -30.137,31.055 38.312,61.781 1.727,2.789 9.121,-5.644 -0.711,-1.149 -3.859,3.969 -37.813,-61.035 24.297,-25.02 62.09,36.055 -3.859,3.973 1.164,0.675 5.39,-9.285 -2.019,-1.176 -63.703,-36.988" /><path
               id="path76"
               style="fill:#ffffff;fill-opacity:1;fill-rule:nonzero;stroke:none"
               d="m 477.578,774.488 -24.297,25.02 37.813,61.035 3.859,-3.969 40.856,-42.058 3.859,-3.973 -62.09,-36.055" /><path
               id="path78"
               style="fill:#ffffff;fill-opacity:1;fill-rule:nonzero;stroke:none"
               d="m 671.035,702.977 -43.262,0 -18.199,72.785 -0.238,0.953 5.219,1.289 17.398,-69.629 34.883,0 17.398,69.633 5.219,-1.293 -0.238,-0.957 -18.18,-72.781 m 13.121,75.046 -5.453,0 0.32,1.27 5.133,-1.27 m -64.054,0 -5.461,0 5.144,1.27 0.317,-1.27" /><path
               id="path80"
               style="fill:#ffffff;fill-opacity:1;fill-rule:nonzero;stroke:none"
               d="m 666.836,708.375 -34.883,0 -17.398,69.629 -0.004,0.019 69.687,0 -0.004,-0.015 -17.398,-69.633" /><path
               id="path82"
               style="fill:#204b72;fill-opacity:1;fill-rule:nonzero;stroke:none"
               d="m 649.375,889.488 c -45.703,0 -82.891,37.168 -82.891,82.91 0,45.672 37.188,82.882 82.891,82.882 45.723,0 82.91,-37.21 82.91,-82.882 0,-45.742 -37.187,-82.91 -82.91,-82.91" /><path
               id="path84"
               style="fill:#ffffff;fill-opacity:1;fill-rule:nonzero;stroke:none"
               d="m 649.375,876.863 c -52.656,0 -95.508,42.891 -95.508,95.535 0,52.652 42.852,95.512 95.508,95.512 52.656,0 95.527,-42.86 95.527,-95.512 0,-52.644 -42.871,-95.535 -95.527,-95.535 m 0,178.417 c -45.703,0 -82.891,-37.21 -82.891,-82.882 0,-45.742 37.188,-82.91 82.891,-82.91 45.723,0 82.91,37.168 82.91,82.91 0,45.672 -37.187,82.882 -82.91,82.882" /><path
               id="path86"
               style="fill:#ffffff;fill-opacity:1;fill-rule:nonzero;stroke:none"
               d="m 214.551,1127.87 c -54.11,0 -101.86,27.72 -129.7893,69.69 15.5313,22.27 33.0043,43.11 52.1603,62.23 11.172,-32.11 41.73,-55.2 77.59,-55.2 45.293,0 82.129,36.84 82.129,82.16 0,25.69 -11.848,48.66 -30.371,63.72 23.222,10.86 47.535,19.83 72.691,26.69 19.648,-26.06 31.312,-58.49 31.312,-93.59 0,-85.86 -69.882,-155.7 -155.722,-155.7" /><path
               id="path88"
               style="fill:#ffffff;fill-opacity:1;fill-rule:nonzero;stroke:none"
               d="m 252.305,1119.51 -18.575,4.67 -0.656,-2.63 -37.07,0 -0.652,2.63 -18.582,-4.67 c -18.02,4.14 -34.946,11.18 -50.25,20.6 l -10.68,18.37 -2.336,-1.35 -25.8048,26.58 1.4219,2.29 -8.6211,5.34 c 1.4063,2.09 2.8242,4.16 4.2617,6.22 27.9293,-41.97 75.6793,-69.69 129.7893,-69.69 85.84,0 155.722,69.84 155.722,155.7 0,35.1 -11.664,67.53 -31.312,93.59 1.98,0.55 3.969,1.07 5.965,1.59 l 13.961,-8.62 0.011,0.02 c 9.133,-15.18 15.946,-31.92 19.93,-49.72 l -4.414,-17.64 2.617,-0.65 0,-37.09 -2.617,-0.66 4.418,-17.66 c -3.977,-17.73 -10.758,-34.42 -19.848,-49.56 l -0.097,0.15 -9.117,-5.64 -0.004,0 -0.004,-0.01 -9.157,-5.67 1.422,-2.29 -25.808,-26.59 -2.352,1.36 -10.281,-17.72 c -15.582,-9.75 -32.859,-17.02 -51.281,-21.25" /><path
               id="path90"
               style="fill:#ffffff;fill-opacity:1;fill-rule:nonzero;stroke:none"
               d="m 379.629,1243.54 -0.797,3.19 -4.418,17.66 2.617,0.66 0,-11.07 59.199,14.82 0,29.61 -59.199,14.82 0,-11.09 -2.617,0.65 4.414,17.64 0.801,3.2 67.363,-16.8 0,-46.41 -67.363,-16.88" /><path
               id="path92"
               style="fill:#ffffff;fill-opacity:1;fill-rule:nonzero;stroke:none"
               d="m 377.031,1253.98 0,59.25 59.199,-14.82 0,-29.61 -59.199,-14.82" /><path
               id="path94"
               style="fill:#ffffff;fill-opacity:1;fill-rule:nonzero;stroke:none"
               d="m 358.887,1370.13 -13.961,8.62 c 0.523,0.13 1.027,0.27 1.554,0.4 l 3.286,-3.38 3.062,4.94 c 4.844,1.16 9.723,2.24 14.625,3.25 l -8.555,-13.81 -0.011,-0.02" /><path
               id="path96"
               style="fill:#ffffff;fill-opacity:1;fill-rule:nonzero;stroke:none"
               d="m 349.766,1375.77 -3.286,3.38 c 2.11,0.53 4.227,1.06 6.348,1.56 l -3.062,-4.94" /><path
               id="path98"
               style="fill:#ffffff;fill-opacity:1;fill-rule:nonzero;stroke:none"
               d="m 363.125,1105.04 -60.039,34.86 0.5,0.86 10.281,17.72 2.352,-1.36 -7.742,-7.97 52.753,-30.58 20.645,21.21 -32.105,51.9 9.117,5.64 0.097,-0.15 36.465,-58.86 -32.324,-33.27 m -21.098,78.67 -1.422,2.29 9.157,5.67 -7.735,-7.96" /><path
               id="path100"
               style="fill:#ffffff;fill-opacity:1;fill-rule:nonzero;stroke:none"
               d="m 361.23,1118.57 -52.753,30.58 7.742,7.97 25.808,26.59 7.735,7.96 0.004,0.01 0.004,0 32.105,-51.9 -20.645,-21.21" /><path
               id="path102"
               style="fill:#ffffff;fill-opacity:1;fill-rule:nonzero;stroke:none"
               d="m 66.6211,1105.04 -21.9492,22.56 c 1.5976,3.48 3.2461,6.94 4.9297,10.36 l 18.875,-19.39 52.7734,30.58 -7.746,7.98 2.336,1.35 10.68,-18.37 0.121,-0.21 -60.0199,-34.86 m 21.0781,78.67 -7.2851,7.5 c 0.0312,0.05 0.0547,0.08 0.0859,0.13 l 8.6211,-5.34 -1.4219,-2.29" /><path
               id="path104"
               style="fill:#ffffff;fill-opacity:1;fill-rule:nonzero;stroke:none"
               d="m 68.4766,1118.57 -18.875,19.39 c 9.0937,18.49 19.3945,36.27 30.8125,53.25 l 7.2851,-7.5 25.8048,-26.58 7.746,-7.98 -52.7734,-30.58" /><path
               id="path106"
               style="fill:#ffffff;fill-opacity:1;fill-rule:nonzero;stroke:none"
               d="m 237.715,1051.59 -46.426,0 -16.816,67.34 2.297,0.58 18.582,4.67 0.652,-2.63 -11.102,0 14.805,-59.21 29.629,0 14.805,59.21 -11.067,0 0.656,2.63 18.575,-4.67 2.285,-0.58 -16.875,-67.34" /><path
               id="path108"
               style="fill:#ffffff;fill-opacity:1;fill-rule:nonzero;stroke:none"
               d="m 229.336,1062.34 -29.629,0 -14.805,59.21 59.239,0 -14.805,-59.21" /><path
               id="path110"
               style="fill:#204b72;fill-opacity:1;fill-rule:nonzero;stroke:none"
               d="m 214.512,1217.21 c -32.434,0 -59.758,22.36 -67.391,52.46 31.582,29.64 67.379,54.84 106.402,74.6 18.399,-12.53 30.5,-33.65 30.5,-57.52 0,-38.32 -31.171,-69.54 -69.511,-69.54" /><path
               id="path112"
               style="fill:#ffffff;fill-opacity:1;fill-rule:nonzero;stroke:none"
               d="m 214.512,1204.59 c -35.86,0 -66.418,23.09 -77.59,55.2 3.348,3.35 6.75,6.64 10.199,9.88 7.633,-30.1 34.957,-52.46 67.391,-52.46 38.34,0 69.511,31.22 69.511,69.54 0,23.87 -12.101,44.99 -30.5,57.52 4.211,2.13 8.457,4.19 12.747,6.2 18.523,-15.06 30.371,-38.03 30.371,-63.72 0,-45.32 -36.836,-82.16 -82.129,-82.16" /></g></g></g><g
         transform="scale(10,10)"
         id="g114"><text
           id="text116"
           style="font-variant:normal;font-weight:600;font-size:24px;font-family:GillSans;-inkscape-font-specification:GillSans-SemiBold;writing-mode:lr-tb;fill:#204b72;fill-opacity:1;fill-rule:nonzero;stroke:none"
           transform="matrix(0.79,0,0,-1,7.00703,8.70117)"><tspan
             id="tspan118"
             y="0"
             x="0 19.270386 35.999249 51.260769 69.910645 77.77877 97.530029 119.10838 137.7113 157.22777 178.46738 193.36548 213.7608 229.02361 245.75119 262.935 271.04913 292.62875 313.02408 320.89096 329.0051 349.40045 357.51456 374.69836 382.81247 399.54135 416.72641 424.83929 442.07132">DATA DOCUMENTATION INITIATIVE</tspan></text>
</g></g></g></svg>